HIERARCHY
ROOT Hips
{
	OFFSET 0.000000 0.000000 0.000000
	CHANNELS 6 Xposition Yposition Zposition Zrotation Yrotation Xrotation 
	JOINT LeftUpLeg_virtual
	{
		OFFSET 0.000000 0.000000 0.000000
		CHANNELS 3 Zrotation Yrotation Xrotation
		JOINT LeftUpLeg
		{
			OFFSET 10.205400 -3.823500 0.155100
			CHANNELS 3 Zrotation Yrotation Xrotation
			JOINT LeftLeg
			{
				OFFSET 0.708757 -12.982077 0.567790
				CHANNELS 3 Zrotation Yrotation Xrotation
				JOINT LeftFoot
				{
					OFFSET -0.708756 -10.717838 -2.184338
					CHANNELS 3 Zrotation Yrotation Xrotation
					JOINT LeftToeBase
					{
						OFFSET 0.108149 -7.191104 7.560241
						CHANNELS 3 Zrotation Yrotation Xrotation
						End Site
						{
							OFFSET 0.000000 0.000000 0.000000
						}
					}
				}
			}
		}
	}
	JOINT RightUpLeg_virtual
	{
		OFFSET 0.000000 0.000000 0.000000
		CHANNELS 3 Zrotation Yrotation Xrotation
		JOINT RightUpLeg
		{
			OFFSET -10.205400 -3.823500 0.005500
			CHANNELS 3 Zrotation Yrotation Xrotation
			JOINT RightLeg
			{
				OFFSET -0.708756 -12.982134 0.610632
				CHANNELS 3 Zrotation Yrotation Xrotation
				JOINT RightFoot
				{
					OFFSET 0.708754 -10.717769 -1.945823
					CHANNELS 3 Zrotation Yrotation Xrotation
					JOINT RightToeBase
					{
						OFFSET -0.108140 -7.191069 7.372968
						CHANNELS 3 Zrotation Yrotation Xrotation
						End Site
						{
							OFFSET 0.000000 0.000000 0.000000
						}
					}
				}
			}
		}
	}
	JOINT Spine_virtual
	{
		OFFSET 0.000000 0.000000 0.000000
		CHANNELS 3 Zrotation Yrotation Xrotation
		JOINT Spine
		{
			OFFSET 0.000000 6.876099 0.125700
			CHANNELS 3 Zrotation Yrotation Xrotation
			JOINT Spine1
			{
				OFFSET 0.000000 8.022060 0.146608
				CHANNELS 3 Zrotation Yrotation Xrotation
				JOINT Spine2
				{
					OFFSET 0.000000 9.168068 0.167552
					CHANNELS 3 Zrotation Yrotation Xrotation
					JOINT Neck_virtual
					{
						OFFSET 0.000000 0.000000 0.000000
						CHANNELS 3 Zrotation Yrotation Xrotation
						JOINT Neck
						{
							OFFSET 0.000000 10.314075 0.188496
							CHANNELS 3 Zrotation Yrotation Xrotation
							JOINT Head
							{
								OFFSET 0.000000 7.643700 -2.377400
								CHANNELS 3 Zrotation Yrotation Xrotation
								End Site
								{
									OFFSET 0.000000 0.000000 0.000000
								}
							}
						}
					}
					JOINT LeftShoulder_virtual
					{
						OFFSET 0.000000 0.000000 0.000000
						CHANNELS 3 Zrotation Yrotation Xrotation
						JOINT LeftShoulder
						{
							OFFSET 4.392200 8.824978 0.174984
							CHANNELS 3 Zrotation Yrotation Xrotation
							JOINT LeftArm
							{
								OFFSET 8.771219 -2.981674 -0.026999
								CHANNELS 3 Zrotation Yrotation Xrotation
								JOINT LeftForeArm
								{
									OFFSET 8.512804 0.000000 -0.000000
									CHANNELS 3 Zrotation Yrotation Xrotation
									JOINT LeftHand
									{
										OFFSET 18.484802 0.000000 -0.000000
										CHANNELS 3 Zrotation Yrotation Xrotation
										End Site
										{
											OFFSET 0.000000 0.000000 0.000000
										}
									}
								}
							}
						}
					}
					JOINT RightShoulder_virtual
					{
						OFFSET 0.000000 0.000000 0.000000
						CHANNELS 3 Zrotation Yrotation Xrotation
						JOINT RightShoulder
						{
							OFFSET -4.392200 8.824993 0.141379
							CHANNELS 3 Zrotation Yrotation Xrotation
							JOINT RightArm
							{
								OFFSET -8.771282 -2.981682 -0.094208
								CHANNELS 3 Zrotation Yrotation Xrotation
								JOINT RightForeArm
								{
									OFFSET -8.494598 0.000000 0.000000
									CHANNELS 3 Zrotation Yrotation Xrotation
									JOINT RightHand
									{
										OFFSET -18.483803 0.000000 0.000001
										CHANNELS 3 Zrotation Yrotation Xrotation
										End Site
										{
											OFFSET 0.000000 0.000000 0.000000
										}
									}
								}
							}
						}
					}
				}
			}
		}
	}
}
MOTION
Frames: 11
Frame Time: 0.033333
-7.807885 20.469522 -12.762670 179.960964 4.411769 -179.935268 7.667762 -3.995401 -32.708717 -17.631575 3.950537 -49.645537 26.869133 4.219235 29.687854 -13.111818 -5.142685 17.342772 0.000000 0.000000 0.000000 6.268454 2.319533 -30.203588 8.227163 11.812794 -48.701653 -6.856699 -5.024113 26.568469 2.203270 6.500335 22.650145 0.000000 0.000000 0.000000 2.188762 3.884484 -37.328951 0.410017 -5.011964 -14.887152 -1.795206 -2.338741 13.338559 -0.026115 -0.016378 0.036940 -2.250625 -0.783918 17.237289 -2.961645 -3.208883 50.974716 0.000000 0.000000 0.000000 0.642582 -0.526135 11.414452 -5.680971 0.729684 -2.609145 12.160182 -17.937079 -52.141719 -167.623661 -77.411868 177.713203 0.000000 0.000000 0.000000 -4.351967 1.203624 11.013270 21.028081 8.079591 -17.779081 -7.982782 1.684580 -45.441822 177.303378 39.125653 175.831459 0.000000 0.000000 0.000000 
-7.795489 20.449930 -12.768785 179.892730 4.569702 -179.911745 7.728655 -4.061103 -32.601709 -17.404475 3.916211 -49.839047 26.900681 4.266182 30.003088 -12.896217 -5.247482 17.020790 0.000000 0.000000 0.000000 6.339841 2.312772 -30.029333 7.971795 12.059286 -49.165443 -6.835661 -4.932624 26.799892 2.414709 6.372102 22.794817 0.000000 0.000000 0.000000 2.382644 3.629166 -37.466883 0.454058 -5.091030 -14.882198 -1.875046 -2.256262 13.480405 -0.008116 0.015294 0.043864 -2.286166 -0.727101 17.345477 -2.853761 -3.054113 50.942618 0.000000 0.000000 0.000000 0.587183 -0.314683 11.467964 -5.613620 0.508382 -2.569392 11.601683 -17.076562 -51.913065 -167.755101 -77.043783 177.835655 0.000000 0.000000 0.000000 -4.394718 1.392434 11.162451 20.876002 8.190370 -17.691918 -6.741972 0.908032 -45.804058 177.575657 39.235031 175.857099 0.000000 0.000000 0.000000 
-7.785104 20.440018 -12.765244 179.941580 4.763091 -179.781453 7.853363 -4.164320 -32.560929 -17.075108 3.922392 -50.094885 26.977847 4.266776 30.406342 -12.731241 -5.415555 16.634152 0.000000 0.000000 0.000000 6.461205 2.383193 -29.933605 7.847163 12.286026 -49.512659 -6.830125 -4.819712 26.840005 2.610911 6.196295 23.077669 0.000000 0.000000 0.000000 2.466152 3.552219 -37.733319 0.602503 -5.161064 -14.969968 -1.918154 -2.176775 13.661566 0.025506 0.021709 0.055891 -2.378062 -0.610631 17.419943 -2.787223 -2.882651 50.844755 0.000000 0.000000 0.000000 0.470036 -0.280065 11.556070 -5.582632 -0.029396 -2.569469 10.824661 -16.115934 -51.624742 -168.013638 -76.744566 178.180675 0.000000 0.000000 0.000000 -4.475168 1.379796 11.241367 20.750337 8.206916 -17.468088 -5.425994 0.144907 -45.792009 177.836857 39.498926 175.890963 0.000000 0.000000 0.000000 
-7.781381 20.437099 -12.767336 179.906322 4.907557 -179.846025 7.770601 -4.229227 -32.340266 -16.726665 3.860538 -50.313246 26.941729 4.301680 30.786644 -12.596943 -5.606509 16.262960 0.000000 0.000000 0.000000 6.460086 2.379061 -29.734781 7.856434 12.435675 -49.743428 -6.832097 -4.669817 26.908726 2.764564 5.979431 23.219419 0.000000 0.000000 0.000000 2.517806 3.448884 -37.854435 0.739142 -5.207181 -14.954508 -1.961608 -2.079285 13.706906 0.013827 0.043542 0.055092 -2.489073 -0.414229 17.498108 -2.846526 -2.540566 50.724653 0.000000 0.000000 0.000000 0.367860 -0.225797 11.615549 -5.656483 -0.657200 -2.466773 9.639163 -15.098435 -51.067812 -167.930829 -76.669515 178.298591 0.000000 0.000000 0.000000 -4.502053 1.484415 11.272460 20.539176 8.191552 -16.984090 -3.945957 -0.841296 -45.563321 178.074493 39.785989 175.929977 0.000000 0.000000 0.000000 
-7.769464 20.436739 -12.778191 179.855219 4.935664 -179.804006 7.609368 -4.253315 -32.166827 -16.403061 3.798760 -50.562483 26.805472 4.390574 31.118362 -12.499950 -5.825770 15.872907 0.000000 0.000000 0.000000 6.385386 2.388325 -29.575809 7.932770 12.492636 -50.006448 -6.848774 -4.485350 26.968474 2.836882 5.736753 23.216967 0.000000 0.000000 0.000000 2.526949 3.322067 -37.982634 0.858887 -5.258595 -15.002555 -2.024470 -1.999590 13.725889 0.018676 0.035342 0.038119 -2.448235 -0.469239 17.597803 -2.851312 -2.509225 50.622678 0.000000 0.000000 0.000000 0.295592 -0.066298 11.662961 -5.641968 -1.272195 -2.253637 8.020432 -13.874886 -50.271982 -167.623224 -76.625338 178.282704 0.000000 0.000000 0.000000 -4.550258 1.575498 11.347716 20.230083 8.289743 -16.397443 -2.032547 -2.190960 -45.521766 178.398462 40.322968 176.056336 0.000000 0.000000 0.000000 
-7.742748 20.439684 -12.782872 179.835766 4.960316 -179.929094 7.425201 -4.252250 -31.777943 -16.112905 3.788105 -50.845322 26.625575 4.464904 31.285862 -12.480607 -6.037619 15.622557 0.000000 0.000000 0.000000 6.329550 2.389600 -29.307392 8.056262 12.502858 -50.093492 -6.860988 -4.350445 26.911543 2.909367 5.532935 23.200069 0.000000 0.000000 0.000000 2.530864 3.289433 -37.897868 1.019005 -5.313575 -14.941969 -2.044197 -1.948011 13.780696 0.020075 0.010756 0.041895 -2.478189 -0.372367 17.555142 -3.015575 -2.237273 50.366156 0.000000 0.000000 0.000000 0.240862 0.070982 11.650633 -5.777724 -1.950190 -1.982201 5.814556 -12.479413 -49.226662 -167.355289 -76.652549 178.380622 0.000000 0.000000 0.000000 -4.561912 1.636129 11.327132 19.915141 8.348621 -15.771726 0.539548 -3.773935 -45.916903 178.701723 40.990404 176.190303 0.000000 0.000000 0.000000 
-7.699365 20.446426 -12.780579 179.893167 4.866068 -179.931061 7.302622 -4.229691 -31.571692 -15.838182 3.739695 -51.003075 26.392563 4.664062 31.189427 -12.498504 -6.224095 15.671941 0.000000 0.000000 0.000000 6.313798 2.413763 -28.991752 8.128013 12.455584 -50.277463 -6.897027 -4.253561 26.787872 2.959858 5.346509 23.184681 0.000000 0.000000 0.000000 2.602518 3.187508 -37.769566 1.198183 -5.307288 -14.842204 -2.030176 -1.891376 13.825216 0.039026 0.036462 0.036022 -2.535886 -0.227452 17.589971 -3.249386 -1.906133 50.045674 0.000000 0.000000 0.000000 0.149480 0.102068 11.693624 -6.054155 -2.707471 -1.579132 3.083327 -10.602255 -47.896203 -167.205736 -76.694849 178.615143 0.000000 0.000000 0.000000 -4.576846 1.649120 11.379803 19.622370 8.365049 -15.043659 3.700436 -5.605138 -46.843913 179.144934 41.949014 176.420699 0.000000 0.000000 0.000000 
-7.653662 20.452267 -12.767411 179.863005 4.728727 -179.828595 7.134006 -4.283898 -31.289220 -15.608217 3.656754 -51.326795 26.133687 4.833636 30.955807 -12.468350 -6.360479 15.890635 0.000000 0.000000 0.000000 6.257428 2.377599 -28.855268 8.183356 12.382079 -50.424886 -6.937057 -4.243924 26.474397 3.046184 5.202407 23.360371 0.000000 0.000000 0.000000 2.622493 3.032554 -37.591882 1.347764 -5.246934 -14.722297 -2.001271 -1.821950 13.844747 0.034158 0.056786 0.057178 -2.501024 -0.209150 17.605509 -3.496307 -1.690749 49.525592 0.000000 0.000000 0.000000 0.129800 0.211343 11.766550 -6.409090 -3.344308 -1.224916 -0.288272 -8.390479 -46.151851 -166.842124 -76.823072 178.621673 0.000000 0.000000 0.000000 -4.551341 1.657697 11.458190 19.344967 8.380892 -14.304519 7.627758 -7.641309 -47.959013 179.590371 42.947219 176.670875 0.000000 0.000000 0.000000 
-7.625439 20.454336 -12.730143 179.897060 4.562095 -179.989418 7.056261 -4.380021 -30.913969 -15.428721 3.637929 -51.479061 25.919139 5.029894 30.590303 -12.388754 -6.501513 16.224950 0.000000 0.000000 0.000000 6.323167 2.303324 -28.358980 8.184461 12.314509 -50.645006 -7.002301 -4.213270 26.070687 3.130853 5.054892 23.690818 0.000000 0.000000 0.000000 2.716233 2.896959 -37.030188 1.497215 -5.193661 -14.414838 -1.989248 -1.806325 13.886105 0.015077 0.030592 0.017078 -2.507881 -0.072839 17.604130 -3.854682 -1.267076 48.906579 0.000000 0.000000 0.000000 0.130043 0.245745 11.815892 -7.021309 -3.955902 -0.746750 -4.162417 -5.762453 -43.856071 -166.542237 -77.053864 178.612274 0.000000 0.000000 0.000000 -4.496491 1.665041 11.502188 19.202699 8.292082 -13.373597 12.166623 -9.754751 -48.816619 -179.817543 44.203550 177.061275 0.000000 0.000000 0.000000 
-7.623614 20.457857 -12.688648 179.914177 4.416108 179.911595 6.959972 -4.527964 -30.496105 -15.284843 3.624488 -51.784196 25.734355 5.133696 30.356608 -12.217684 -6.654010 16.511521 0.000000 0.000000 0.000000 6.380716 2.148156 -28.178062 8.211465 12.297363 -50.535593 -7.058911 -4.267557 25.482304 3.253540 4.937076 24.104666 0.000000 0.000000 0.000000 2.696046 2.916679 -36.293101 1.626345 -5.142564 -14.130382 -1.955192 -1.602824 13.907550 0.026321 -0.032082 0.062887 -2.479100 -0.107416 17.504076 -4.195513 -1.114722 48.139402 0.000000 0.000000 0.000000 0.099009 0.213036 11.874209 -7.802304 -4.553890 -0.278464 -8.327376 -2.837622 -40.921740 -166.133478 -77.479535 178.393121 0.000000 0.000000 0.000000 -4.474173 1.584153 11.417161 19.129166 8.048511 -12.119547 17.272618 -11.976155 -49.086213 -179.107286 45.639713 177.584235 0.000000 0.000000 0.000000 
-7.647592 20.465921 -12.666959 179.920283 4.394168 -179.974419 6.901560 -4.639561 -30.122849 -15.336773 3.851569 -52.422207 25.979560 5.846312 30.615821 -10.966761 -6.117689 16.838330 0.000000 0.000000 0.000000 6.562729 2.072979 -27.998919 8.155370 12.221682 -50.781801 -7.443678 -4.693634 25.289993 2.111531 4.013399 24.676956 0.000000 0.000000 0.000000 2.903558 2.697288 -35.454020 1.739299 -4.858715 -13.951093 -2.036954 -1.715788 13.862131 -0.000448 0.039525 0.018231 -2.565994 0.008577 17.523649 -4.546208 -0.802277 47.100216 0.000000 0.000000 0.000000 0.025722 0.339419 11.914427 -8.661040 -4.908703 0.506087 -12.542732 0.527516 -37.305277 -165.544716 -77.836699 177.846569 0.000000 0.000000 0.000000 -4.518417 1.658278 11.642621 19.185371 7.972432 -11.291799 22.546945 -14.290229 -48.366339 -178.681997 47.239528 177.824726 0.000000 0.000000 0.000000 
